inDegrees=yes
name=ik_S55_A09_T01
DataType=double
version=3
OpenSimVersion=4.3-2021-08-27-4bc7ad9
endheader
time	pelvis_tilt	pelvis_list	pelvis_rotation	pelvis_tx	pelvis_ty	pelvis_tz	hip_flexion_r	hip_adduction_r	hip_rotation_r	knee_angle_r	knee_angle_r_beta	ankle_angle_r	subtalar_angle_r	mtp_angle_r	hip_flexion_l	hip_adduction_l	hip_rotation_l	knee_angle_l	knee_angle_l_beta	ankle_angle_l	subtalar_angle_l	mtp_angle_l	lumbar_extension	lumbar_bending	lumbar_rotation	arm_flex_r	arm_add_r	arm_rot_r	elbow_flex_r	pro_sup_r	wrist_flex_r	wrist_dev_r	arm_flex_l	arm_add_l	arm_rot_l	elbow_flex_l	pro_sup_l	wrist_flex_l	wrist_dev_l
7.339999999999931	-3.774683007428063	0.08867484177790538	25.18859749083498	0	0.9399999999999999	0	42.57718902638356	-11.65472229667541	-10.79253882457851	54.00964831791797	0.9426461909918857	0	0	0	42.57718902638356	-11.65472229667541	-10.79253882457851	54.00964831791797	0.9426461909918857	0	0	0	-2.664159761624916	-1.830277146289736	0.9237973334626992	52.57145164205637	-17.51467148576115	13.42227584462799	72.64418065076147	105.5786372721614	0	0	38.71219024289785	-24.98704680597207	3.738582999070539	75.17576145141685	119.0081505557911	0	0
7.359999999999931	-3.769526111705633	0.09618174052561629	25.23729713176715	0	0.9399999999999999	0	42.57849034491395	-11.65161077375489	-10.79158474474803	54.01000358759364	0.9426523916174586	0	0	0	42.57849034491395	-11.65161077375489	-10.79158474474803	54.01000358759364	0.9426523916174586	0	0	0	-2.656526186552971	-1.823311615371366	0.9003403784673538	52.73871828102079	-17.3610234220858	13.62743607042222	72.35448326943738	105.8444554780943	0	0	38.66459094002688	-24.96523808072241	3.720206400520184	75.19074097091641	119.0077439196746	0	0
7.379999999999931	-3.783723073923876	0.08876261401976958	25.28052685387399	0	0.9399999999999999	0	42.57940124903548	-11.6494397651718	-10.7909182060495	54.01025281639328	0.9426567414806031	0	0	0	42.57940124903548	-11.6494397651718	-10.7909182060495	54.01025281639328	0.9426567414806031	0	0	0	-2.672645192347966	-1.8217141033277	0.8729390388038298	52.90784027217405	-17.25089581713613	13.8815354128515	72.22659422795078	106.0809092536249	0	0	38.72629169460494	-24.95562847134923	3.752281822149378	75.19588326220932	118.9968619388076	0	0
7.39999999999993	-3.789982220796431	0.0878309415357735	25.28613834895754	0	0.9399999999999999	0	42.57562470348554	-11.66617348673677	-10.79504030617317	54.00938828644252	0.9426416525864802	0	0	0	42.57562470348554	-11.66617348673677	-10.79504030617317	54.00938828644252	0.9426416525864802	0	0	0	-2.678137317141317	-1.822990868443726	0.8703997801609975	52.92719837720882	-17.25345080400768	13.91201201762052	72.25496259542486	106.3514564843531	0	0	38.71927284248283	-24.94572733310263	3.763188888088538	75.19027564185032	119.0314036874349	0	0
7.41999999999993	-3.792865035947633	0.07253965111457539	25.3360035190938	0	0.9399999999999999	0	42.57655573201713	-11.66394009061656	-10.79435739043305	54.00964314817968	0.9426461007629311	0	0	0	42.57655573201713	-11.66394009061656	-10.79435739043305	54.00964314817968	0.9426461007629311	0	0	0	-2.687400255164647	-1.833027625296902	0.8374059703816185	53.06790402224085	-17.11433697341537	14.14105937847709	72.1251304584047	106.7572829863041	0	0	38.78525609105167	-24.95488861137857	3.830310606142397	75.17738849017016	118.9968104993872	0	0
7.439999999999929	-3.800538052360297	0.06895058542370193	25.33529277896595	0	0.9399999999999999	0	42.57195491076755	-11.6831128656009	-10.7991752713425	54.00856851753383	0.9426273449199182	0	0	0	42.57195491076755	-11.6831128656009	-10.7991752713425	54.00856851753383	0.9426273449199182	0	0	0	-2.695086092380461	-1.837425905932506	0.8464515326699208	53.10543172410656	-17.13048691009656	14.16525318221127	72.16442702804378	107.0170003868111	0	0	38.8003585477942	-24.93520277013113	3.856883161546329	75.15769437197055	119.0272903486967	0	0
7.459999999999929	-3.804231849615737	0.06664456983241236	25.41834533699332	0	0.9399999999999999	0	42.57290472983328	-11.68081731094664	-10.79847653907155	54.00882861750944	0.942631884520877	0	0	0	42.57290472983328	-11.68081731094664	-10.79847653907155	54.00882861750944	0.942631884520877	0	0	0	-2.699550929848419	-1.833785732820972	0.7826228191160459	53.39945841302472	-16.91452127449875	14.55694420151104	71.92880944308234	107.8249110383076	0	0	38.82717691177641	-24.91826707855671	3.901615450957042	75.13118234500257	118.9777999020488	0	0
7.479999999999928	-3.802861194421113	0.06490363663230751	25.44422775350537	0	0.9399999999999999	0	42.5658924437739	-11.69734186261104	-10.80359033025994	54.00691524046873	0.9425984897916844	0	0	0	42.5658924437739	-11.69734186261104	-10.80359033025994	54.00691524046873	0.9425984897916844	0	0	0	-2.697595744671564	-1.842866297295151	0.7802414686524121	53.45048072227409	-16.9284625516412	14.60123102056659	71.87549616478212	107.9726700706161	0	0	38.85741191223737	-24.93334329083451	3.926580286232097	75.12174093733162	119.0495440153363	0	0
7.499999999999928	-3.800821996958861	0.05999153345620426	25.45644626778189	0	0.9399999999999999	0	42.56397018409488	-11.6996612586948	-10.80462228188573	54.00634863330443	0.9425886006311019	4.310455369189608e-35	0	0	42.56397018409488	-11.6996612586948	-10.80462228188573	54.00634863330443	0.9425886006311019	4.310455369189608e-35	0	0	-2.697437178416093	-1.850248482683861	0.7800585862462647	53.46037175076486	-16.91357464376992	14.63095134072317	71.84701443575611	108.0068782756507	0	0	38.88390568475111	-24.92935690747816	3.939406189965893	75.1350540973974	119.0745907559012	0	0
7.519999999999928	-3.800251031184468	0.04507579448113065	25.48135328487228	0	0.9399999999999999	0	42.56415817983859	-11.69921469062789	-10.80448566277251	54.00640121785931	0.9425895184047203	0	0	0	42.56415817983859	-11.69921469062789	-10.80448566277251	54.00640121785931	0.9425895184047203	0	0	0	-2.703370348277685	-1.863729933752455	0.7792851700772979	53.44226682420398	-16.91778999811851	14.71482874320797	71.81316628379935	108.0392798651268	0	0	38.91949588795318	-24.9265055905057	3.992267961270302	75.15680849273102	119.0999987340943	0	0
7.539999999999927	-3.809014147275665	0.03003477079360499	25.50741337439139	0	0.9399999999999999	0	42.56440173398923	-11.69863345099868	-10.80430812246282	54.00646904600453	0.9425907022291801	0	0	0	42.56440173398923	-11.69863345099868	-10.80430812246282	54.00646904600453	0.9425907022291801	0	0	0	-2.717803975586484	-1.873218424805116	0.778300573518069	53.42552387626353	-16.89345183585984	14.79878113458792	71.75951995172555	108.0765463705275	0	0	38.96611408088681	-24.90554609079239	4.05645101155988	75.17577806808418	119.1322764827816	0	0
7.559999999999927	-3.808797434367146	0.01852988322649527	25.53404494029179	0	0.9399999999999999	0	42.56463579669664	-11.69807538976754	-10.80413760202987	54.00653427825502	0.9425918407467296	0	0	0	42.56463579669664	-11.69807538976754	-10.80413760202987	54.00653427825502	0.9425918407467296	0	0	0	-2.722617588930239	-1.883374275783637	0.776753940854143	53.37506599133662	-16.85474471244385	14.86646812187946	71.70108825739895	108.1177845373234	0	0	38.98455686701457	-24.89510585374666	4.121690412535353	75.19100196892806	119.1505031018813	0	0
7.579999999999926	-3.808038227314401	0.01055158673129612	25.55140199203005	0	0.9399999999999999	0	42.56253674627878	-11.7008168648191	-10.80530100071789	54.00591998864631	0.9425811193704967	0	0	0	42.56253674627878	-11.7008168648191	-10.80530100071789	54.00591998864631	0.9425811193704967	0	0	0	-2.724890396254187	-1.892833387188837	0.769672104811828	53.32555074069165	-16.7898552376736	14.91051303924662	71.62050269553674	108.113691771264	0	0	39.00037910177585	-24.89586198545243	4.145351561287767	75.19681702810098	119.1845397302246	0	0
7.599999999999926	-3.806561200588354	-0.002166890353606843	25.54805537659442	0	0.9399999999999999	0	42.56311744976395	-11.69941340369022	-10.80487407151303	54.0060798132283	0.942583908835678	0	0	0	42.56311744976395	-11.69941340369022	-10.80487407151303	54.0060798132283	0.942583908835678	0	0	0	-2.729175954712623	-1.903288774899309	0.7476302050530171	53.26153609517986	-16.71008212917179	14.92509274298319	71.51469775025861	107.9613920136185	0	0	38.98169337707913	-24.95748582127729	4.122848271496529	75.22326877098037	119.1843502893652	0	0
